<?xml version="1.0" encoding="UTF-8"?>
<!DOCTYPE svg PUBLIC "-//W3C//DTD SVG 1.1//EN" "http://www.w3.org/Graphics/SVG/1.1/DTD/svg11.dtd">
<!-- Creator: CorelDRAW 2020 (64-Bit) -->
<svg xmlns="http://www.w3.org/2000/svg" xml:space="preserve" width="139.573mm" height="101.702mm" version="1.1" style="shape-rendering:geometricPrecision; text-rendering:geometricPrecision; image-rendering:optimizeQuality; fill-rule:evenodd; clip-rule:evenodd"
viewBox="0 0 4773.5 3478.28"
 xmlns:xlink="http://www.w3.org/1999/xlink"
 xmlns:xodm="http://www.corel.com/coreldraw/odm/2003">
 <defs>
  <style type="text/css">
   <![CDATA[
    .fil3 {fill:#FEFEFE}
    .fil2 {fill:#004BC7;fill-rule:nonzero}
    .fil4 {fill:#00BB45;fill-rule:nonzero}
    .fil0 {fill:url(#id0);fill-opacity:0.741176}
    .fil1 {fill:url(#id1);fill-opacity:0.741176}
   ]]>
  </style>
  <linearGradient id="id0" gradientUnits="userSpaceOnUse" x1="837.26" y1="2868.94" x2="3263.46" y2="609.35">
   <stop offset="0" style="stop-opacity:1; stop-color:#004BC7"/>
   <stop offset="0.341176" style="stop-opacity:1; stop-color:#008386"/>
   <stop offset="1" style="stop-opacity:1; stop-color:#00BB45"/>
  </linearGradient>
  <linearGradient id="id1" gradientUnits="userSpaceOnUse" xlink:href="#id0" x1="1316.87" y1="1277.99" x2="1347.88" y2="1226.31">
  </linearGradient>
 </defs>
 <g id="Capa_x0020_1">
  <metadata id="CorelCorpID_0Corel-Layer"/>
  <g id="_2226637892336">
   <path class="fil0" d="M1905.03 8.49c-443.65,43.7 -808.84,225.54 -1100.53,530.75 -141.53,148.1 -255.92,318 -337.86,503.7 17.21,-6.05 34.7,-11.52 52.42,-16.4 60.05,-129.92 135.64,-250.57 223.91,-358.12 71.04,-86.54 151.6,-174.28 243.48,-240.15 -20.2,25.58 -42.13,37.48 -65.47,63.54 -17.56,19.64 -36.01,47.94 -53.53,73.63 -82.63,121.09 -126.13,66.96 -165.06,333.39 -5.57,38.14 -14.3,71.59 -21.4,100.8 9.73,-0.6 19.49,-1.03 29.3,-1.27 4.97,-47.44 11.68,-102.83 37.91,-150.07l2.2 35.15c-8.31,51.32 -10.81,84.67 -12.04,114.72 82.31,0.83 161.61,14.13 236.08,38.09 98.06,-160.44 145.81,-35.48 197.95,-47.97 42.15,-10.1 38.26,-44.18 106.82,-23.64 126.24,37.81 66.15,79.49 95.14,185.01 29.37,-6.06 22.97,6.03 37.91,-30.74 19.56,-48.14 0.39,-108.45 20.17,-152.11 20.47,-45.18 82.76,-70.54 140.94,-95.2 117.78,-49.89 58.97,-169.46 269.69,-196.74 15.87,-43.25 1.28,-52.21 51.7,-64.7 24.35,-6.05 72.63,-21.98 87.35,-22.58 -5.53,15.09 -12.57,23.26 -4.58,38.89 30.03,-6.8 42.47,-14.47 81.26,-22.74 30.31,-6.46 59.56,-12.87 77.45,-37.11 -22.96,-36.07 -59.03,-21.01 -104.16,-28.78 -20.34,-39.07 7.35,-25.31 -11.43,-44.1 -18.1,-18.11 -23.82,-2.61 -48.33,-18.03 31.61,-42.56 59.16,-4.36 105.56,1.03 46.85,5.45 75.45,-13.92 110.34,-25.95l-31.2 79.49c22.58,15.43 38.48,16.89 68.92,24.81 25.84,6.71 50.86,14.53 73.64,2.46 -6.58,-64.66 -41.88,-20.95 -63.67,-94.21 -46.02,-154.76 -78.39,-86.72 -125.78,-174.77 -30.29,-56.27 -50.11,-30.55 -106.49,-22.17 -17.82,-34.76 -27.35,-59.55 -81.36,-65.96 -49.21,-5.85 -72.94,14.69 -89.11,49.34 -23.15,49.68 -17.08,54.13 -67.38,78.01 -64.27,30.52 -15.58,44.09 -69.99,63.82 -12.77,-23.76 -1.59,-49.62 -3.53,-75.8 -76.95,-31.91 -70.79,1.34 -107.92,-67.34 31.09,-50.85 107.84,-68.09 173.62,-83.51 84.64,-19.85 92.7,-53.85 193.76,-34.58 19.2,48.5 15.59,75.41 83.77,89.05 54.31,10.85 88.73,-20.94 94.67,-63.27 -1.16,-4.62 -128.71,-106.71 -186.96,-97.85 -132.45,20.15 5.15,32.8 -240.46,27.12 69.83,-39.17 237.07,-41.69 329.47,-43.54 125.41,-2.52 169.07,26.12 259.94,101.37l-18.99 34.82c60.06,19.64 43.68,45.58 78.54,68.6 16.04,10.6 30.71,12 51.26,22.22 25.67,12.75 9.75,14.45 47.3,15.77 12.62,-35.56 -11.35,-41.52 9.73,-78.89 17.64,-29.38 60.9,-25.75 90.35,-48.2 -21.8,-23.52 -48.3,-27.85 -60.48,-59.94 187.83,42.89 353.05,128.51 498.89,221.44 293.61,187.12 174.06,239.37 239.61,287.25 32.27,23.57 77.22,53.58 86.08,95.18l-77.01 -3.54c8.4,52.04 40.6,82.68 64.3,135.3 29.5,65.49 127.02,108.76 108.29,10.75 -8.45,-44.24 -34.7,-90.67 -17.54,-134.21 31.64,-5.53 17.42,3.98 23.27,9.13 34.67,30.56 96.59,137.26 113.57,175.02l-57.92 3 -20.75 51.31c-43.46,0.14 -33.95,-3.51 -64.81,-21.14 15.55,39.78 18.53,61.66 19.22,82.93 15.94,-2.17 32.2,-3.3 48.68,-3.3l180.31 0c-293.27,-624.73 -951.51,-1074.81 -1729.04,-998.24zm-1376.24 2554.24c311.44,576.28 943.4,974.5 1687.31,908.38 572.47,-50.88 1088.16,-391.9 1366.08,-891.17l-51.41 0c-106.3,186.24 -245.23,351.71 -405.56,479.93 -161.87,129.46 -355.44,241.29 -597.52,311.45 -123.94,35.92 -251.94,57.62 -386.16,64.04 -71.75,3.43 -149.36,2.16 -220.91,-3.97 -35.99,-3.08 -68.72,-6.4 -104.46,-11.25 -59.77,-8.11 -45.27,-3.91 -71.45,-38.08l14.41 -24.66c11.54,-18.58 8.33,-8.6 15.72,-30.46 107.07,11.75 31.55,-10.7 102.76,-26.51 50.87,-11.3 67.8,2.41 118.51,-21.24 -5.78,-47.03 -14.11,-20.72 -30.04,-72.32 86.16,7.09 122.91,31.94 196.37,-19.03 37.78,-26.23 93.08,-64.48 119.89,-107.11 99.18,-157.71 205.21,-71.63 288.16,-166.82 31.72,-36.41 78.15,-90.07 92.18,-134.41 29.18,-92.24 17.89,-88.13 72.68,-154.98 21.29,-25.96 43.8,-37.34 64.23,-53.72 -69.35,-15.7 -131.04,-50.88 -179.34,-99.18 -10.34,-10.34 -20.06,-21.29 -29.11,-32.77 -9.38,11.77 -19.47,22.99 -30.2,33.57 -66.95,66.13 -159.05,107.5 -260.2,107.5l-580.12 0c-37.57,0 -75.75,-6.47 -114.5,-19.41l0.1 -0.31c-26.67,-8.95 -51.63,-20.44 -74.85,-34.42 -7.33,-4.09 -14.53,-8.58 -21.56,-13.46l-0.52 -0.36 0.14 -0.21 -1.15 -0.79c-80.67,-56.69 -132.08,-139.51 -150.04,-229.55 -20.33,26.14 -42.25,50.99 -65.64,74.37 -7,7 -14.15,13.87 -21.41,20.61 100.86,139.11 99.56,203.76 141.81,245.33 139.44,137.2 228.98,97.97 171.29,369.73 -12.29,57.85 -1.94,76.53 -6.86,129.69 -4.45,48.1 -25.88,72.65 -24.96,116.98 0.91,43.76 17.95,74.09 19.34,124.8 -164.68,-33.57 -372.86,-155.69 -484.59,-233.28 -204.74,-142.15 -378.96,-331.97 -505.34,-554.98 -17.92,-3.39 -35.64,-7.38 -53.12,-11.95zm992.16 -853.63c1.76,3.13 6.78,7.57 24.39,13.77 5.74,-8.99 9.92,-17.21 13.81,-24.52 17.39,8.3 35.5,15.25 54.2,20.72l-89.82 128.52c1.2,-17.92 1.83,-36.01 1.83,-54.24 0,-28.46 -1.5,-56.56 -4.41,-84.24z"/>
   <path class="fil1" d="M1323.55 1263.61c10.03,2.36 22.38,6.6 37.94,13.67 3.31,-12.38 7.27,-24.51 11.83,-36.34 -27.73,-11.46 -56.77,-17.85 -81.88,-11.22l1.18 1.17c10.62,10.61 20.93,21.53 30.93,32.73z"/>
   <path class="fil2" d="M322.12 1385.46c104.58,-104.58 249,-169.19 408.04,-169.19 159.59,0 303.86,64.46 408.23,168.84 104.37,104.37 168.84,248.64 168.84,408.23 0,159.59 -64.46,303.86 -168.84,408.23 -104.37,104.37 -248.64,168.84 -408.23,168.84 -159.04,0 -303.47,-64.62 -408.04,-169.19 -104.33,-104.33 -169.02,-248.45 -169.02,-407.88 0,-159.42 64.69,-303.55 169.02,-407.87zm598.19 216.29c-49.65,-49.64 -117.7,-80.75 -191.59,-80.75 -75.12,0 -142.36,30.21 -190.84,79.14 -48.74,49.19 -78.63,117.49 -78.63,193.2 0,75.71 29.89,144.01 78.63,193.2 48.48,48.93 115.72,79.14 190.84,79.14 73.89,0 141.94,-31.11 191.59,-80.75 49.64,-49.65 80.75,-117.7 80.75,-191.59 0,-73.88 -31.11,-141.94 -80.75,-191.58zm1093.14 453.9l287.3 0c42.18,0 80.6,17.37 108.45,45.58 27.54,27.89 44.63,66.34 44.63,108.94 0,41.47 -17.4,79.55 -45.4,107.2 -27.68,27.34 -65.8,44.45 -107.68,44.45l-580.12 0c-15.27,0 -30.38,-2.5 -45.33,-7.48 -14.22,-4.74 -27.72,-11.6 -40.46,-20.58l-1.3 -0.87c-34.13,-23.98 -55.48,-59.31 -62.16,-97.48 -6.66,-38.06 1.26,-78.87 25.62,-113.95l0.1 0.07c135.41,-203.11 283.48,-405.59 423.72,-606.25l-307.35 0c-39.99,0 -76.5,-16.51 -102.95,-42.97 -26.46,-26.45 -42.97,-62.96 -42.97,-102.95 0,-39.93 16.54,-76.02 43.07,-102.19 26.5,-26.15 63,-42.29 102.85,-42.29l584.42 0c14.89,0 30.52,1.39 46.03,5.32 16.94,4.3 33.3,11.52 47.92,23l0.15 0.15c32.25,25.62 53,61.5 59.5,99.53 6.44,37.66 -0.92,77.36 -24.62,111.49l-0.1 -0.07 -413.31 591.37zm868.1 306.16c-42.02,0 -79.75,-17.08 -107.07,-44.4 -27.6,-27.6 -44.57,-65.71 -44.57,-107.25l0 -833.65c0,-41.53 16.97,-79.64 44.57,-107.24 27.32,-27.32 65.06,-44.4 107.07,-44.4 42.02,0 79.76,17.08 107.08,44.4 27.6,27.6 44.57,65.71 44.57,107.24l0 833.65c0,41.54 -16.97,79.65 -44.57,107.25 -27.32,27.32 -65.06,44.4 -107.08,44.4zm872.2 -306.16l287.3 0c42.18,0 80.6,17.37 108.45,45.58 27.54,27.89 44.63,66.34 44.63,108.94 0,41.47 -17.4,79.55 -45.4,107.2 -27.68,27.34 -65.8,44.45 -107.68,44.45l-580.12 0c-15.27,0 -30.38,-2.5 -45.33,-7.48 -14.22,-4.74 -27.72,-11.6 -40.46,-20.58l-1.3 -0.87c-34.13,-23.98 -55.48,-59.31 -62.16,-97.48 -6.66,-38.06 1.26,-78.87 25.62,-113.95l0.1 0.07c135.41,-203.11 283.48,-405.59 423.72,-606.25l-307.35 0c-39.99,0 -76.5,-16.51 -102.95,-42.97 -26.46,-26.45 -42.97,-62.96 -42.97,-102.95 0,-39.93 16.54,-76.02 43.07,-102.19 26.5,-26.15 63,-42.29 102.85,-42.29l584.42 0c14.89,0 30.52,1.39 46.03,5.32 16.94,4.3 33.3,11.52 47.92,23l0.15 0.15c32.25,25.62 53,61.5 59.5,99.53 6.44,37.66 -0.92,77.36 -24.62,111.49l-0.1 -0.07 -413.31 591.37zm868.1 306.16c-42.02,0 -79.75,-17.08 -107.07,-44.4 -27.6,-27.6 -44.57,-65.71 -44.57,-107.25l0 -833.65c0,-41.53 16.97,-79.64 44.57,-107.24 27.32,-27.32 65.06,-44.4 107.07,-44.4 42.02,0 79.76,17.08 107.08,44.4 27.6,27.6 44.57,65.71 44.57,107.24l0 833.65c0,41.54 -16.97,79.65 -44.57,107.25 -27.32,27.32 -65.06,44.4 -107.08,44.4z"/>
   <polygon class="fil3" points="1257.95,1251.55 476.91,1102.94 219.04,950.77 946.62,808.64 1585.03,1225 "/>
   <path class="fil3" d="M497.27 1041.49c-24.31,87.88 -62.89,190.75 -87.2,278.64 169.97,-8.19 306.22,50.38 398.66,158.02 122.96,-24.95 258.29,-34.54 431,22.4 8.5,-96.62 14.85,-216.07 23.34,-312.69 -230.25,-135.24 -484.72,-186.82 -765.81,-146.37z"/>
   <path class="fil2" d="M454.36 1065.77c9.38,4.9 13.02,16.48 8.12,25.86 -4.9,9.38 -16.48,13.02 -25.86,8.12l-244.85 -128.4c-9.38,-4.9 -13.02,-16.48 -8.12,-25.86 2.8,-5.37 7.8,-8.86 13.32,-9.94l-0.01 -0.06 745.97 -145.72c5.56,-1.08 11.02,0.35 15.22,3.49l637.33 415.65c8.88,5.77 11.41,17.66 5.64,26.54 -3.36,5.17 -8.8,8.19 -14.51,8.67l0 0.05 -283.71 24.46c-10.59,0.87 -19.88,-7 -20.75,-17.59 -0.87,-10.59 7,-19.88 17.59,-20.75l228.12 -19.67 -585.16 -381.62 -684.77 133.77 196.43 103.01z"/>
   <path class="fil4" d="M715.94 840.19c5.96,1.99 9.18,8.45 7.18,14.41 -1.99,5.96 -8.45,9.18 -14.41,7.18 -140.44,-47.32 -231.83,-33.65 -294.81,23.82 -64.04,58.44 -100.49,162.52 -129.69,294.15 -24.07,108.51 -89.1,132.28 -144.87,152.67 -42.03,15.36 -78.03,28.52 -79.42,82.46 -0.15,6.28 -5.36,11.26 -11.64,11.11 -6.28,-0.15 -11.26,-5.36 -11.11,-11.64 1.8,-69.49 44.52,-85.11 94.41,-103.34 50.35,-18.4 109.06,-39.86 130.42,-136.15 30.14,-135.9 68.33,-243.85 136.55,-306.11 69.29,-63.23 167.86,-78.94 317.39,-28.55z"/>
   <path class="fil4" d="M50.05 1574.12c-2.41,0.02 -4.38,-1.92 -4.41,-4.32l-1.41 -147.03c-0.02,-2.41 1.91,-4.38 4.32,-4.41 2.41,-0.03 4.38,1.91 4.41,4.32l1.41 147.03c0.02,2.41 -1.92,4.38 -4.32,4.41z"/>
   <path class="fil4" d="M35.79 1569.93c-2.38,0.02 -4.35,-1.87 -4.41,-4.26 -0.89,-38.42 -0.44,-77.33 1.35,-115.68 0.23,-4.95 0.52,-11.12 2.19,-16.77 2.03,-6.89 5.96,-11.96 10.76,-13.91 2.23,-0.9 4.78,0.17 5.68,2.41 0.91,2.24 -0.17,4.78 -2.4,5.68 -2.22,0.91 -4.45,4.16 -5.67,8.29 -1.36,4.63 -1.61,9.97 -1.83,14.7 -1.78,38.14 -2.23,76.86 -1.35,115.07 0.05,2.41 -1.85,4.42 -4.26,4.47l-0.06 0z"/>
   <path class="fil4" d="M18.21 1566.61l-0.6 -0.03c-2.39,-0.31 -4.08,-2.49 -3.78,-4.89 1.82,-14.2 1.63,-29.1 1.44,-43.51l-0.08 -6.91c-0.15,-15.99 0.03,-34.47 4.11,-51.63 4.56,-19.15 13.71,-33.89 25.11,-40.44 2.09,-1.2 4.76,-0.48 5.96,1.61 1.2,2.09 0.48,4.76 -1.61,5.96 -9.18,5.28 -17.02,18.31 -20.96,34.88 -3.85,16.2 -4.02,34.05 -3.87,49.52l0.08 6.88c0.19,14.71 0.39,29.92 -1.5,44.73 -0.28,2.19 -2.14,3.79 -4.29,3.81z"/>
   <path class="fil4" d="M64.02 1569.67l-0.06 0c-2.41,-0.01 -4.36,-1.97 -4.35,-4.38 0.16,-38.25 -1.04,-76.95 -3.54,-115.02 -0.31,-4.72 -0.67,-10.08 -2.12,-14.66 -1.3,-4.1 -3.58,-7.32 -5.82,-8.18 -2.25,-0.86 -3.37,-3.39 -2.51,-5.64 0.86,-2.25 3.4,-3.37 5.64,-2.51 4.84,1.85 8.85,6.85 11.02,13.7 1.77,5.58 2.16,11.5 2.51,16.72 2.52,38.27 3.72,77.18 3.56,115.64 -0.01,2.39 -1.94,4.32 -4.33,4.35z"/>
   <path class="fil4" d="M81.54 1566.01c-2.15,0.02 -4.04,-1.55 -4.36,-3.73 -2.18,-14.75 -2.27,-29.94 -2.36,-44.64l-0.05 -6.94c-0.15,-15.47 -0.65,-33.31 -4.82,-49.44 -4.25,-16.49 -12.34,-29.38 -21.63,-34.48 -2.11,-1.16 -2.89,-3.81 -1.72,-5.93 1.16,-2.12 3.81,-2.89 5.93,-1.72 11.53,6.33 20.96,20.89 25.88,39.95 4.42,17.08 4.94,35.56 5.09,51.54l0.05 6.97c0.09,14.39 0.18,29.27 2.27,43.41 0.35,2.38 -1.3,4.6 -3.68,4.96l-0.6 0.04z"/>
   <path class="fil4" d="M4.64 1545.3c-2.39,0.03 -4.36,-1.88 -4.41,-4.29 -0.3,-16.41 -0.61,-33.38 1.14,-50.02 1.99,-19.02 6.47,-34.92 13.31,-47.25 8.52,-15.38 20.71,-24.81 33.44,-25.89 2.38,-0.14 4.52,1.58 4.72,3.98 0.21,2.4 -1.58,4.52 -3.98,4.72 -9.64,0.82 -19.57,8.82 -26.55,21.42 -6.26,11.31 -10.39,26.09 -12.26,43.93 -1.69,16.1 -1.38,32.8 -1.09,48.95 0.04,2.41 -1.87,4.4 -4.29,4.44l-0.04 0z"/>
   <path class="fil4" d="M94.7 1544.44l-0.04 0c-2.41,0.01 -4.37,-1.95 -4.37,-4.36 -0.01,-16.14 -0.03,-32.83 -2.03,-48.92 -2.21,-17.8 -6.61,-32.5 -13.09,-43.69 -7.22,-12.46 -17.3,-20.27 -26.95,-20.91 -2.41,-0.16 -4.23,-2.23 -4.08,-4.64 0.16,-2.41 2.24,-4.22 4.64,-4.07 12.76,0.83 25.13,10.04 33.94,25.24 7.07,12.21 11.85,28.02 14.21,46.99 2.06,16.63 2.08,33.59 2.09,49.99 0,2.4 -1.93,4.35 -4.32,4.37z"/>
   <path class="fil4" d="M64.33 1414.46c0.05,5.56 -6.97,10.13 -15.69,10.21 -8.72,0.08 -15.83,-4.36 -15.89,-9.9 -0.05,-5.56 6.97,-10.13 15.69,-10.22 8.72,-0.08 15.84,4.35 15.89,9.91z"/>
   <path class="fil2" d="M625.96 888.04c-10.42,1.91 -20.42,-4.99 -22.33,-15.41 -1.91,-10.42 4.99,-20.42 15.41,-22.33l223.34 -40.9c10.42,-1.91 20.42,4.99 22.33,15.41 1.91,10.42 -4.99,20.42 -15.41,22.33l-223.34 40.9z"/>
   <path class="fil2" d="M428.18 1311.09c-3.32,10.09 -14.2,15.58 -24.29,12.25 -10.09,-3.32 -15.58,-14.2 -12.25,-24.29l87.36 -263.58c2.5,-7.61 9.3,-12.6 16.82,-13.17 145.28,-20.04 282.17,-16.54 411.27,8.76 129.59,25.39 251.3,72.74 365.76,140.26 6.57,3.88 9.98,11.07 9.37,18.19l-25.46 289.85c-0.91,10.59 -10.24,18.43 -20.83,17.52 -10.59,-0.91 -18.43,-10.24 -17.52,-20.83l24.42 -277.75c-107.61,-62.04 -221.8,-105.72 -343.12,-129.49 -121.89,-23.89 -251.03,-27.71 -387.96,-9.88l-83.58 252.16z"/>
   <path class="fil4" d="M410.07 1339.31c-10.59,0 -19.17,-8.58 -19.17,-19.17 0,-10.59 8.58,-19.17 19.17,-19.17 101.11,-0.29 179.18,16.94 244.58,46.11 61.99,27.65 112.08,65.77 159.39,109.73 65.56,-17.51 138,-24.31 208.34,-22.87 82.14,1.68 161.74,14.6 224.4,34.81 10.09,3.24 15.64,14.05 12.4,24.14 -3.24,10.09 -14.05,15.64 -24.14,12.4 -59.38,-19.16 -135.08,-31.4 -213.42,-33.01 -70.22,-1.44 -142.33,5.66 -206.4,23.95 -6.61,2.37 -14.28,1.01 -19.72,-4.16 -46.88,-44.46 -95.85,-82.9 -156.49,-109.96 -60.71,-27.08 -133.71,-43.08 -228.94,-42.8z"/>
  </g>
 </g>
</svg>
